<svg id="Capa_1" data-name="Capa 1" xmlns="http://www.w3.org/2000/svg" viewBox="0 0 228.66 39.08">
  <defs>
    <style>
      .cls-1 {
        fill: #fff;
      }
    </style>
  </defs>
  <title>navbar-logo</title>
  <g>
    <g>
      <path class="cls-1" d="M63.14,35.75A14.83,14.83,0,0,1,55,37.82,12.06,12.06,0,0,1,45,33q-3.78-4.84-3.78-12.74,0-8.47,4.25-13.7A13.27,13.27,0,0,1,56.22,1.3a14.79,14.79,0,0,1,6.92,1.45V7.17a12.15,12.15,0,0,0-7-2.12A9.89,9.89,0,0,0,48,9.11Q44.82,13.18,44.82,20q0,6.45,2.94,10.29a9.29,9.29,0,0,0,7.72,3.83,12.59,12.59,0,0,0,7.66-2.37Z"/>
      <path class="cls-1" d="M92.46,37.82H88.2L83.08,27.58a23.2,23.2,0,0,0-1.37-2.43,8.29,8.29,0,0,0-1.36-1.64,4.31,4.31,0,0,0-1.49-.93,5.07,5.07,0,0,0-1.8-.3h-3V37.82H70.53V1.3h9.13a11,11,0,0,1,3.7.6,8,8,0,0,1,3,1.82,8.47,8.47,0,0,1,2,3A11.83,11.83,0,0,1,89,11a12.09,12.09,0,0,1-.48,3.5,9.7,9.7,0,0,1-1.36,2.84A8.84,8.84,0,0,1,85,19.5a10,10,0,0,1-2.8,1.36V21a6,6,0,0,1,1.33.93,8.19,8.19,0,0,1,1.08,1.23,16.87,16.87,0,0,1,1,1.62c.34.6.71,1.31,1.12,2.1ZM74.11,5.17V18.41H79a6.3,6.3,0,0,0,2.48-.48,5.64,5.64,0,0,0,2-1.39,6.43,6.43,0,0,0,1.3-2.21,8.82,8.82,0,0,0,.47-2.95,6.31,6.31,0,0,0-1.59-4.57A6.12,6.12,0,0,0,79,5.17Z"/>
      <path class="cls-1" d="M103.53,37.82H99.87V1.3h3.66Z"/>
      <path class="cls-1" d="M165.66,37.78h-4.27l-3.48-10.24H144l-3.28,10.24h-4.28L149,1.26h4Zm-9-14.08s-5.5-16.89-5.66-18h-.1c-.15,1-5.64,18-5.64,18Z"/>
      <path class="cls-1" d="M187.45,37.82H172.82V1.3h4V34h10.6Z"/>
    </g>
    <path class="cls-1" d="M116,15.34,111.45,1.26h-4.28l12.6,36.52h4L136.42,1.26h-4.27l-4.74,14.08m0,0s-5.5,16.89-5.66,18h-.1c-.15-1-5.64-18-5.64-18"/>
  </g>
</svg>
